# xmcd CD database file
#
# Track frame offsets:
#	150
#	12912
#	25582
#	42822
#	56340
#	72645
#	83492
#	100327
#
# Disc length: 1436 seconds
#
# Revision: 0
# Processed by: cddbd v1.4PL0 Copyright (c) Steve Scherf et al.
# Submitted via: CDex 1.51
#
DISCID=58059a08
DTITLE=Sin City Boys - Temptation Road
DYEAR=1998
DGENRE=Country
TTITLE0=Temptation Road
TTITLE1=I Ain't Goin' Country
TTITLE2=Half A Chance
TTITLE3=Been So Long
TTITLE4=Angel, I'm Home
TTITLE5=Who's to Say?
TTITLE6=Hungry Enough
TTITLE7=Little Suzie (Mono)
EXTD=YEAR: 1998
EXTT0=
EXTT1=
EXTT2=
EXTT3=
EXTT4=
EXTT5=
EXTT6=
EXTT7=
PLAYORDER=
